<svg width="120" height="28" viewBox="0 0 120 28" fill="none" xmlns="http://www.w3.org/2000/svg">
<path d="M34.7109 6.07524H37.5492V7.0984C37.5492 7.40857 37.6429 7.59453 37.8301 7.65628C38.0384 7.71851 38.2983 7.59453 38.6099 7.28436C39.0119 6.83995 39.5002 6.48145 40.0452 6.23057C40.6082 5.95673 41.2279 5.81859 41.8542 5.82729H43.2273C44.1095 5.82362 44.9708 6.09463 45.6911 6.60249C46.4406 7.11929 47.0334 7.8318 47.4694 8.74C47.9068 9.6292 48.1253 10.6315 48.1248 11.7468V21.6969H45.2858V12.1208C45.2858 11.3974 45.1714 10.7561 44.9427 10.1971C44.714 9.61852 44.3804 9.17415 43.942 8.86398C43.5132 8.535 42.9858 8.35934 42.4446 8.36522H41.2295C40.5344 8.36105 39.8602 8.60264 39.3269 9.04709C38.7665 9.50499 38.33 10.1158 38.0174 10.8796C37.7025 11.6589 37.5434 12.492 37.5492 13.3321V21.6969H34.7109V6.07524Z" fill="black"/>
<path d="M55.8897 21.9446C54.3301 21.9446 53.0823 21.552 52.1465 20.7669C51.2316 19.9594 50.7739 18.8849 50.7734 17.5435C50.7734 16.1185 51.2726 15.0129 52.2709 14.2268C53.2687 13.4193 54.6505 12.8614 56.4165 12.5531L60.0046 11.9646C60.3162 11.9233 60.5347 11.8508 60.66 11.7473C60.7853 11.6437 60.8477 11.4775 60.8473 11.2485C60.8462 10.7304 60.7173 10.2205 60.472 9.76369C60.2554 9.30198 59.9075 8.91396 59.4713 8.64791C59.0425 8.38182 58.5469 8.24202 58.0418 8.24463H56.7946C55.9626 8.24463 55.2657 8.50303 54.7039 9.01983C54.1626 9.51574 53.8507 10.208 53.7683 11.0968H50.8978C50.9821 10.0427 51.2945 9.12315 51.8349 8.33797C52.3744 7.55059 53.1039 6.91111 53.9563 6.47834C54.838 6.04223 55.8103 5.81914 56.7946 5.82711H58.0418C59.1854 5.82711 60.1837 6.07506 61.0367 6.57096C61.9003 7.05667 62.5965 7.79135 63.0337 8.67854C63.4907 9.56775 63.7194 10.5804 63.7199 11.7167V18.0081C63.7199 18.4004 63.7823 18.6899 63.9071 18.8766C64.0397 19.0472 64.2269 19.1674 64.4375 19.2172C64.8095 19.2675 65.185 19.2883 65.5604 19.2792V21.6967H63.6577C63.0335 21.6967 62.555 21.5934 62.2224 21.3867C61.9099 21.1597 61.6499 20.7982 61.4426 20.3023C61.3597 20.075 61.2132 19.951 61.0052 19.9304C60.8189 19.9095 60.6421 20.0023 60.4749 20.209C60.0389 20.7049 59.4046 21.1181 58.5722 21.4487C57.7183 21.7846 56.8076 21.9539 55.8897 21.9475V21.9446ZM56.2328 19.5585C57.0468 19.5678 57.8505 19.3762 58.5722 19.0006C59.2632 18.6437 59.8454 18.1082 60.2576 17.4502C60.6745 16.789 60.8825 16.0244 60.8816 15.1566V15.0326C60.8816 14.7434 60.7984 14.5367 60.6321 14.4128C60.4663 14.2703 60.2261 14.2168 59.9173 14.2582L57.0776 14.7569C55.934 14.9431 55.0815 15.2324 54.5202 15.6247C53.9794 15.9967 53.709 16.5959 53.709 17.4224C53.709 18.0632 53.9379 18.5797 54.3958 18.9721C54.8723 19.3644 55.4856 19.5608 56.2356 19.5613L56.2328 19.5585Z" fill="black"/>
<path d="M71.5601 0.775391V5.14517C71.5601 5.43444 71.6432 5.66173 71.8095 5.82703C71.9753 5.99233 72.2048 6.07498 72.4957 6.07498H76.4269V8.4925H72.4957C72.2048 8.4925 71.9753 8.57515 71.8095 8.74046C71.6437 8.90576 71.5601 9.13305 71.5601 9.42303V17.4194C71.5601 18.0602 71.7059 18.5352 71.9975 18.8445C72.3091 19.1337 72.7456 19.2784 73.3069 19.2784H76.1774V21.6966H72.6515C71.3649 21.6966 70.3881 21.366 69.721 20.7048C69.0772 20.0436 68.7549 19.0311 68.7539 17.6674V9.42303C68.7539 9.13281 68.671 8.90528 68.5052 8.74046C68.3394 8.57563 68.1106 8.49298 67.819 8.4925H65.4453V6.07498H67.8169C68.1085 6.07498 68.3372 5.99233 68.5031 5.82703C68.6689 5.66173 68.7518 5.43444 68.7518 5.14517V0.775391H71.5601Z" fill="black"/>
<path d="M92.2186 21.6973H89.3795V20.6749C89.3795 20.3652 89.2757 20.1792 89.0679 20.117C88.8806 20.0547 88.631 20.1787 88.3188 20.4889C87.9126 20.9363 87.4261 21.3041 86.8843 21.5733C86.3157 21.8272 85.6983 21.9541 85.0753 21.9453H83.7022C82.82 21.949 81.9587 21.678 81.2384 21.17C80.4894 20.6537 79.8966 19.9512 79.4601 19.0625C79.0227 18.1528 78.8042 17.1401 78.8047 16.0244V6.07568H81.6437V15.6531C81.6336 16.3199 81.75 16.9825 81.9868 17.6061C82.1927 18.1328 82.5386 18.5937 82.9875 18.9392C83.4253 19.2497 83.9512 19.4125 84.4884 19.4038H85.7035C86.3987 19.4078 87.0728 19.1662 87.6062 18.7219C88.168 18.2673 88.6047 17.6576 88.9164 16.8929C89.2306 16.115 89.3894 15.2833 89.3838 14.4447V6.07568H92.2229V21.6973H92.2186Z" fill="black"/>
<path d="M101.824 8.4932C101.507 8.48835 101.192 8.54611 100.898 8.66314C100.604 8.78017 100.335 8.95416 100.109 9.17507C99.6387 9.6507 99.2772 10.2218 99.0488 10.8494C98.8041 11.4827 98.6771 12.1551 98.6742 12.8338V21.6973H95.8359V6.07568H98.6742V6.94351C98.6742 7.27411 98.7672 7.46008 98.9551 7.5014C99.1431 7.54273 99.3504 7.43941 99.5791 7.19146C99.8908 6.79911 100.234 6.52029 100.608 6.35499C101.003 6.16878 101.481 6.07568 102.044 6.07568H103.978V8.4932H101.824Z" fill="black"/>
<path d="M109.983 21.9446C108.424 21.9446 107.176 21.552 106.24 20.7669C105.324 19.9594 104.866 18.8849 104.867 17.5435C104.867 16.1185 105.366 15.0129 106.365 14.2268C107.362 13.4193 108.744 12.8614 110.51 12.5531L114.098 11.9646C114.411 11.9233 114.629 11.8508 114.754 11.7473C114.878 11.6437 114.94 11.4775 114.94 11.2485C114.94 10.7295 114.811 10.2186 114.566 9.76084C114.349 9.29927 114.001 8.9113 113.565 8.64506C113.134 8.37802 112.636 8.23819 112.129 8.24178H110.883C110.051 8.24178 109.354 8.50018 108.792 9.01698C108.254 9.51479 107.944 10.2081 107.861 11.0968H104.992C105.074 10.0428 105.387 9.12315 105.928 8.33797C106.468 7.55107 107.197 6.91169 108.049 6.47834C108.931 6.04222 109.904 5.81913 110.888 5.82711H112.135C113.278 5.82711 114.277 6.07506 115.13 6.57096C115.995 7.05585 116.693 7.79063 117.131 8.67855C117.588 9.56775 117.817 10.5805 117.816 11.7167V18.0081C117.816 18.4004 117.879 18.6899 118.004 18.8766C118.137 19.047 118.324 19.1672 118.534 19.2172C118.906 19.2675 119.282 19.2882 119.658 19.2792V21.6967H117.754C117.131 21.6967 116.651 21.5934 116.319 21.3867C116.007 21.1597 115.748 20.7982 115.54 20.3023C115.456 20.075 115.311 19.951 115.103 19.9304C114.916 19.9095 114.739 20.0023 114.572 20.209C114.136 20.7049 113.502 21.1181 112.669 21.4487C111.816 21.7844 110.905 21.9537 109.987 21.9475L109.983 21.9446ZM110.327 19.5585C111.141 19.5678 111.944 19.3762 112.666 19.0006C113.357 18.6434 113.938 18.108 114.351 17.4502C114.766 16.789 114.974 16.0244 114.975 15.1566V15.0326C114.975 14.7434 114.891 14.5367 114.724 14.4128C114.559 14.2703 114.32 14.2187 114.01 14.2582L111.171 14.7569C110.028 14.9431 109.175 15.2324 108.614 15.6247C108.073 15.9967 107.802 16.5959 107.803 17.4224C107.803 18.0632 108.031 18.5797 108.488 18.9721C108.965 19.3644 109.578 19.5608 110.329 19.5613L110.327 19.5585Z" fill="black"/>
<path d="M6.64726 21.9444C5.35783 21.9444 4.20374 21.5931 3.18497 20.8906C2.1843 20.1671 1.40426 19.196 0.844846 17.9771C0.285428 16.7583 0.00381205 15.3946 0 13.886C0 12.3778 0.280664 11.0141 0.841988 9.79477C1.42428 8.57497 2.21575 7.61404 3.21642 6.91199C4.20224 6.19271 5.39566 5.81191 6.61724 5.82685H7.49067C8.04881 5.83062 8.60043 5.9467 9.11246 6.16813C9.67499 6.39576 10.1926 6.72094 10.6413 7.12859C10.953 7.37654 11.2129 7.45919 11.4211 7.37654C11.6289 7.27299 11.7328 7.05615 11.7328 6.72602V0H14.5718V21.6964H11.7292V20.9219C11.7292 20.6535 11.6253 20.4778 11.4176 20.3947C11.2303 20.312 11.0016 20.374 10.7314 20.5806C10.26 20.9818 9.73483 21.3156 9.17107 21.5724C8.64229 21.8133 8.06844 21.94 7.4871 21.9444H6.64726ZM8.02031 19.4649C8.7435 19.4664 9.44636 19.2263 10.0166 18.783C10.6199 18.308 11.0878 17.6468 11.4204 16.7994C11.774 15.9316 11.9508 14.9604 11.9508 13.886C11.9508 12.8115 11.774 11.8506 11.4204 11.0032C11.0869 10.1353 10.6189 9.47415 10.0166 9.01957C9.454 8.55886 8.74843 8.30704 8.02031 8.30707H6.86169C6.17552 8.30707 5.53081 8.54457 4.92755 9.01957C4.32429 9.47415 3.83563 10.1353 3.46158 11.0032C3.10753 11.8506 2.93051 12.8115 2.93051 13.886C2.93051 14.9604 3.1073 15.9316 3.46086 16.7994C3.83492 17.6463 4.32358 18.3075 4.92683 18.783C5.53009 19.2376 6.1748 19.4649 6.86097 19.4649H8.02031Z" fill="black"/>
<path d="M31.3201 21.6963H28.4811V20.6739C28.4811 20.3642 28.3772 20.1782 28.1695 20.116C27.9822 20.0538 27.7328 20.1777 27.4211 20.4879C27.0145 20.9352 26.5277 21.3029 25.9859 21.5723C25.417 21.8262 24.7993 21.9531 24.1761 21.9443H22.8038C21.9214 21.9479 21.0598 21.6769 20.3393 21.1691C19.5912 20.6527 18.9984 19.9502 18.561 19.0615C18.124 18.1519 17.9058 17.1392 17.9063 16.0234V6.07471H20.7453V15.6522C20.7351 16.3189 20.8516 16.9815 21.0884 17.6051C21.2942 18.1319 21.6402 18.5927 22.089 18.9382C22.5268 19.2487 23.0528 19.4115 23.59 19.4028H24.8051C25.5005 19.4071 26.1749 19.1655 26.7085 18.7209C27.2694 18.2663 27.7061 17.6567 28.0187 16.8919C28.3329 16.114 28.4917 15.2824 28.4861 14.4438V6.07471H31.3251V21.6963H31.3201Z" fill="black"/>
<path d="M0.359375 25.5752H31.252V27.9998H0.359375V25.5752Z" fill="black"/>
</svg>
