<svg width="120" height="28" viewBox="0 0 120 28" fill="none" xmlns="http://www.w3.org/2000/svg">
<path d="M34.7031 6.07524H37.5414V7.0984C37.5414 7.40858 37.6351 7.59454 37.8223 7.65629C38.0306 7.71852 38.2905 7.59454 38.6021 7.28436C39.0041 6.83995 39.4924 6.48146 40.0374 6.23057C40.6004 5.95673 41.2201 5.81859 41.8465 5.82729H43.2195C44.1017 5.82362 44.9631 6.09463 45.6833 6.60249C46.4328 7.1193 47.0256 7.8318 47.4616 8.74001C47.899 9.62922 48.1175 10.6315 48.1171 11.7468V21.6969H45.278V12.1208C45.278 11.3974 45.1637 10.7562 44.9349 10.1971C44.7062 9.61853 44.3727 9.17416 43.9343 8.86399C43.5054 8.53501 42.978 8.35935 42.4368 8.36523H41.2217C40.5266 8.36106 39.8524 8.60265 39.3191 9.0471C38.7587 9.505 38.3222 10.1159 38.0096 10.8797C37.6947 11.6589 37.5356 12.492 37.5414 13.3321V21.6969H34.7031V6.07524Z" fill="white"/>
<path d="M55.8858 21.9447C54.3262 21.9447 53.0784 21.5521 52.1426 20.7669C51.2277 19.9594 50.77 18.8849 50.7695 17.5435C50.7695 16.1185 51.2687 15.013 52.267 14.2268C53.2648 13.4193 54.6466 12.8614 56.4126 12.5532L60.0007 11.9646C60.3123 11.9233 60.5308 11.8509 60.6561 11.7473C60.7814 11.6438 60.8439 11.4775 60.8434 11.2486C60.8423 10.7304 60.7134 10.2205 60.4681 9.7637C60.2516 9.30199 59.9036 8.91397 59.4675 8.64792C59.0386 8.38183 58.5431 8.24203 58.0379 8.24464H56.7907C55.9587 8.24464 55.2618 8.50304 54.7 9.01984C54.1587 9.51575 53.8468 10.2081 53.7644 11.0968H50.8939C50.9782 10.0428 51.2906 9.12316 51.831 8.33798C52.3705 7.5506 53.1 6.91111 53.9524 6.47834C54.8341 6.04223 55.8064 5.81914 56.7907 5.82711H58.0379C59.1816 5.82711 60.1798 6.07506 61.0328 6.57096C61.8964 7.05668 62.5926 7.79135 63.0298 8.67855C63.4868 9.56776 63.7155 10.5805 63.716 11.7167V18.0081C63.716 18.4004 63.7784 18.69 63.9033 18.8766C64.0358 19.0472 64.223 19.1674 64.4336 19.2172C64.8057 19.2676 65.1812 19.2883 65.5565 19.2792V21.6967H63.6538C63.0296 21.6967 62.5512 21.5934 62.2186 21.3868C61.906 21.1597 61.6461 20.7983 61.4388 20.3024C61.3559 20.0751 61.2093 19.9511 61.0013 19.9304C60.815 19.9095 60.6382 20.0024 60.471 20.209C60.035 20.7049 59.4008 21.1182 58.5683 21.4488C57.7144 21.7846 56.8037 21.9539 55.8858 21.9475V21.9447ZM56.2289 19.5585C57.0429 19.5679 57.8466 19.3762 58.5683 19.0006C59.2594 18.6438 59.8415 18.1083 60.2537 17.4502C60.6706 16.789 60.8786 16.0245 60.8777 15.1566V15.0327C60.8777 14.7434 60.7945 14.5368 60.6282 14.4128C60.4624 14.2703 60.2223 14.2169 59.9135 14.2582L57.0737 14.7569C55.9301 14.9431 55.0776 15.2324 54.5163 15.6248C53.9755 15.9967 53.7051 16.5959 53.7051 17.4224C53.7051 18.0632 53.934 18.5798 54.3919 18.9721C54.8685 19.3645 55.4817 19.5609 56.2317 19.5614L56.2289 19.5585Z" fill="white"/>
<path d="M71.5523 0.775391V5.14518C71.5523 5.43446 71.6354 5.66175 71.8017 5.82705C71.9676 5.99235 72.197 6.075 72.4879 6.075H76.4191V8.49253H72.4879C72.197 8.49253 71.9676 8.57518 71.8017 8.74048C71.6359 8.90578 71.5523 9.13307 71.5523 9.42306V17.4195C71.5523 18.0603 71.6981 18.5353 71.9897 18.8445C72.3014 19.1338 72.7378 19.2784 73.2992 19.2784H76.1696V21.6967H72.6437C71.3572 21.6967 70.3803 21.3661 69.7132 20.7049C69.0694 20.0437 68.7471 19.0312 68.7461 17.6675V9.42306C68.7461 9.13284 68.6632 8.90531 68.4974 8.74048C68.3316 8.57566 68.1028 8.493 67.8112 8.49253H65.4375V6.075H67.8091C68.1007 6.075 68.3294 5.99235 68.4952 5.82705C68.6611 5.66175 68.744 5.43446 68.744 5.14518V0.775391H71.5523Z" fill="white"/>
<path d="M92.2069 21.6974H89.3679V20.6749C89.3679 20.3652 89.264 20.1792 89.0562 20.117C88.869 20.0548 88.6193 20.1788 88.3072 20.4889C87.9009 20.9363 87.4144 21.3041 86.8726 21.5734C86.304 21.8272 85.6866 21.9542 85.0636 21.9453H83.6905C82.8083 21.949 81.9469 21.678 81.2267 21.1701C80.4777 20.6538 79.8849 19.9512 79.4484 19.0625C79.011 18.1529 78.7925 17.1402 78.793 16.0244V6.07568H81.632V15.6532C81.6219 16.3199 81.7383 16.9825 81.9751 17.6062C82.181 18.1329 82.5269 18.5937 82.9758 18.9392C83.4135 19.2498 83.9395 19.4125 84.4767 19.4038H85.6918C86.387 19.4078 87.0611 19.1663 87.5945 18.7219C88.1563 18.2674 88.5931 17.6577 88.9047 16.8929C89.2189 16.115 89.3777 15.2834 89.3722 14.4448V6.07568H92.2112V21.6974H92.2069Z" fill="white"/>
<path d="M101.82 8.49321C101.503 8.48836 101.189 8.54612 100.894 8.66315C100.6 8.78018 100.331 8.95417 100.105 9.17508C99.6348 9.65071 99.2733 10.2218 99.0449 10.8495C98.8002 11.4827 98.6732 12.1552 98.6703 12.8338V21.6974H95.832V6.07568H98.6703V6.94351C98.6703 7.27412 98.7633 7.46008 98.9512 7.50141C99.1392 7.54273 99.3465 7.43942 99.5752 7.19147C99.8869 6.79911 100.23 6.52029 100.604 6.35499C100.999 6.16879 101.477 6.07568 102.04 6.07568H103.974V8.49321H101.82Z" fill="white"/>
<path d="M109.98 21.9447C108.42 21.9447 107.172 21.5521 106.236 20.7669C105.32 19.9594 104.862 18.8849 104.863 17.5435C104.863 16.1185 105.362 15.013 106.361 14.2268C107.359 13.4193 108.74 12.8614 110.506 12.5532L114.094 11.9646C114.407 11.9233 114.625 11.8509 114.75 11.7473C114.874 11.6438 114.936 11.4775 114.936 11.2486C114.936 10.7295 114.807 10.2186 114.562 9.76085C114.345 9.29928 113.997 8.91131 113.561 8.64507C113.13 8.37803 112.633 8.2382 112.125 8.24179H110.879C110.047 8.24179 109.35 8.50019 108.788 9.01699C108.251 9.5148 107.94 10.2081 107.857 11.0968H104.988C105.071 10.0428 105.383 9.12316 105.924 8.33798C106.464 7.55108 107.193 6.91169 108.045 6.47834C108.927 6.04222 109.9 5.81913 110.884 5.82711H112.131C113.275 5.82711 114.273 6.07506 115.126 6.57096C115.991 7.05586 116.689 7.79064 117.127 8.67856C117.585 9.56776 117.813 10.5805 117.813 11.7167V18.0081C117.813 18.4004 117.875 18.69 118.001 18.8766C118.133 19.0471 118.32 19.1672 118.53 19.2172C118.903 19.2676 119.278 19.2883 119.654 19.2792V21.6967H117.75C117.127 21.6967 116.648 21.5934 116.315 21.3868C116.004 21.1597 115.744 20.7983 115.536 20.3024C115.452 20.0751 115.307 19.9511 115.099 19.9304C114.912 19.9095 114.736 20.0024 114.568 20.209C114.132 20.7049 113.498 21.1182 112.666 21.4488C111.812 21.7844 110.901 21.9538 109.983 21.9475L109.98 21.9447ZM110.323 19.5585C111.137 19.5679 111.94 19.3762 112.662 19.0006C113.353 18.6435 113.935 18.108 114.347 17.4502C114.762 16.789 114.97 16.0245 114.971 15.1566V15.0327C114.971 14.7434 114.887 14.5368 114.721 14.4128C114.555 14.2703 114.316 14.2188 114.006 14.2582L111.167 14.7569C110.024 14.9431 109.171 15.2324 108.61 15.6248C108.069 15.9967 107.798 16.5959 107.799 17.4224C107.799 18.0632 108.027 18.5798 108.484 18.9721C108.961 19.3645 109.575 19.5609 110.325 19.5614L110.323 19.5585Z" fill="white"/>
<path d="M6.64728 21.9444C5.35785 21.9444 4.20375 21.5932 3.18498 20.8906C2.18431 20.1672 1.40427 19.1961 0.844849 17.9772C0.285429 16.7584 0.00381206 15.3946 0 13.886C0 12.3779 0.280665 11.0141 0.841991 9.7948C1.42428 8.575 2.21576 7.61406 3.21643 6.91201C4.20225 6.19273 5.39568 5.81193 6.61726 5.82687H7.4907C8.04883 5.83064 8.60046 5.94672 9.11249 6.16815C9.67502 6.39578 10.1926 6.72096 10.6414 7.12861C10.953 7.37656 11.2129 7.45921 11.4212 7.37656C11.6289 7.27301 11.7328 7.05617 11.7328 6.72605V0H14.5718V21.6965H11.7292V20.922C11.7292 20.6536 11.6254 20.4779 11.4176 20.3947C11.2303 20.3121 11.0016 20.3741 10.7314 20.5807C10.26 20.9819 9.73487 21.3157 9.1711 21.5725C8.64232 21.8133 8.06847 21.9401 7.48713 21.9444H6.64728ZM8.02034 19.4649C8.74353 19.4665 9.44639 19.2264 10.0167 18.7831C10.6199 18.308 11.0879 17.6468 11.4205 16.7994C11.774 15.9316 11.9508 14.9605 11.9508 13.886C11.9508 12.8115 11.774 11.8506 11.4205 11.0032C11.0869 10.1354 10.619 9.47418 10.0167 9.0196C9.45403 8.55889 8.74846 8.30707 8.02034 8.30709H6.86171C6.17554 8.30709 5.53082 8.5446 4.92757 9.0196C4.32431 9.47418 3.83565 10.1354 3.46159 11.0032C3.10754 11.8506 2.93052 12.8115 2.93052 13.886C2.93052 14.9605 3.10731 15.9316 3.46088 16.7994C3.83493 17.6464 4.32359 18.3076 4.92685 18.7831C5.53011 19.2376 6.17482 19.4649 6.86099 19.4649H8.02034Z" fill="white"/>
<path d="M31.3202 21.6964H28.4811V20.6739C28.4811 20.3642 28.3773 20.1783 28.1695 20.116C27.9822 20.0538 27.7328 20.1778 27.4212 20.488C27.0145 20.9352 26.5278 21.303 25.9859 21.5724C25.417 21.8263 24.7994 21.9532 24.1761 21.9443H22.8038C21.9214 21.9479 21.0598 21.6769 20.3393 21.1691C19.5912 20.6528 18.9984 19.9503 18.561 19.0615C18.124 18.1519 17.9058 17.1392 17.9063 16.0234V6.07471H20.7453V15.6522C20.7352 16.3189 20.8516 16.9816 21.0884 17.6052C21.2942 18.1319 21.6402 18.5928 22.089 18.9383C22.5268 19.2488 23.0528 19.4116 23.59 19.4028H24.8051C25.5005 19.4071 26.1749 19.1655 26.7085 18.721C27.2694 18.2664 27.7061 17.6567 28.0187 16.892C28.3329 16.114 28.4917 15.2824 28.4861 14.4438V6.07471H31.3252V21.6964H31.3202Z" fill="white"/>
<path d="M0.363281 25.5754H31.256V28.0001H0.363281V25.5754Z" fill="white"/>
</svg>
