<svg width="27" height="28" viewBox="0 0 27 28" fill="none" xmlns="http://www.w3.org/2000/svg">
<path d="M10.7912 0.566824C8.92249 -0.0381226 6.89098 0.803344 5.99731 2.55254L4.92294 4.65544C4.79529 4.9053 4.59207 5.10852 4.34221 5.23617L2.23931 6.31054C0.490112 7.20421 -0.351355 9.23572 0.253592 11.1045L0.980872 13.3511C1.06729 13.6181 1.06729 13.9055 0.980872 14.1725L0.253592 16.4191C-0.351355 18.2879 0.490112 20.3194 2.23931 21.2131L4.34221 22.2874C4.59207 22.4151 4.79529 22.6183 4.92294 22.8682L5.99731 24.9711C6.89098 26.7203 8.92249 27.5618 10.7912 26.9569L13.0379 26.2295C13.3048 26.1431 13.5923 26.1431 13.8592 26.2295L16.1059 26.9569C17.9747 27.5618 20.0062 26.7203 20.8999 24.9711L21.9742 22.8682C22.1019 22.6183 22.3051 22.4151 22.555 22.2874L24.6579 21.2131C26.4071 20.3194 27.2486 18.2879 26.6436 16.4191L25.9163 14.1725C25.8299 13.9055 25.8299 13.6181 25.9163 13.3511L26.6436 11.1045C27.2486 9.23572 26.4071 7.20421 24.6579 6.31054L22.555 5.23617C22.3051 5.10852 22.1019 4.9053 21.9742 4.65544L20.8999 2.55254C20.0062 0.803344 17.9747 -0.0381226 16.1059 0.566824L13.8592 1.2941C13.5923 1.3805 13.3048 1.38052 13.0379 1.2941L10.7912 0.566824ZM6.46159 13.4382L8.34722 11.5525L12.1184 15.3238L19.661 7.78133L21.5466 9.66694L12.1184 19.095L6.46159 13.4382Z" fill="#2E2323" fill-opacity="0.6"/>
</svg>
