<svg width="22" height="22" viewBox="0 0 22 22" fill="none" xmlns="http://www.w3.org/2000/svg">
<path d="M9.00657 1.10377C7.60495 0.650052 6.08133 1.28116 5.41108 2.59306L4.6053 4.17023C4.50956 4.35763 4.35714 4.51004 4.16975 4.60578L2.59257 5.41156C1.28067 6.08181 0.64957 7.60544 1.10328 9.00702L1.64874 10.692C1.71355 10.8922 1.71355 11.1078 1.64874 11.308L1.10328 12.993C0.64957 14.3946 1.28068 15.9182 2.59257 16.5884L4.16975 17.3942C4.35714 17.49 4.50956 17.6424 4.6053 17.8298L5.41108 19.4069C6.08133 20.7188 7.60496 21.3499 9.00657 20.8962L10.6916 20.3508C10.8918 20.286 11.1073 20.286 11.3075 20.3508L12.9925 20.8962C14.3941 21.3499 15.9178 20.7188 16.588 19.4069L17.3938 17.8298C17.4895 17.6424 17.6419 17.49 17.8293 17.3942L19.4065 16.5884C20.7184 15.9182 21.3495 14.3946 20.8958 12.993L20.3503 11.308C20.2855 11.1078 20.2855 10.8922 20.3503 10.692L20.8958 9.00702C21.3495 7.60543 20.7184 6.08181 19.4065 5.41156L17.8293 4.60578C17.6419 4.51004 17.4895 4.35762 17.3938 4.17023L16.588 2.59306C15.9178 1.28116 14.3941 0.650052 12.9925 1.10377L11.3075 1.64922C11.1073 1.71403 10.8918 1.71403 10.6916 1.64922L9.00657 1.10377ZM7.1921 3.50298C7.41551 3.06568 7.92339 2.85532 8.39059 3.00655L10.0756 3.55201C10.6762 3.74644 11.3229 3.74644 11.9235 3.55201L13.6085 3.00655C14.0757 2.85532 14.5836 3.06568 14.807 3.50298L15.6128 5.08016C15.9 5.64234 16.3572 6.09958 16.9194 6.3868L18.4966 7.19258C18.9339 7.416 19.1443 7.92387 18.993 8.39107L18.4476 10.0761C18.2531 10.6767 18.2531 11.3233 18.4476 11.9239L18.993 13.6089C19.1443 14.0761 18.9339 14.584 18.4966 14.8074L16.9194 15.6132C16.3572 15.9004 15.9 16.3577 15.6128 16.9198L14.807 18.497C14.5836 18.9343 14.0757 19.1447 13.6085 18.9934L11.9235 18.448C11.3229 18.2536 10.6762 18.2536 10.0756 18.448L8.39059 18.9934C7.92339 19.1447 7.41551 18.9343 7.1921 18.497L6.38632 16.9198C6.0991 16.3577 5.64185 15.9004 5.07968 15.6132L3.5025 14.8074C3.0652 14.584 2.85483 14.0761 3.00607 13.6089L3.55153 11.9239C3.74595 11.3233 3.74595 10.6767 3.55153 10.0761L3.00607 8.39107C2.85483 7.92387 3.0652 7.416 3.5025 7.19258L5.07967 6.3868C5.64185 6.09958 6.0991 5.64234 6.38632 5.08016L7.1921 3.50298ZM5.75911 10.7574L10.0018 15L17.0729 7.92897L15.6587 6.51476L10.0018 12.1716L7.17333 9.34312L5.75911 10.7574Z" fill="#324132"/>
</svg>
