<svg width="14" height="14" viewBox="0 0 14 14" fill="none" xmlns="http://www.w3.org/2000/svg">
<path d="M7.66668 12.2921C10.0791 11.9913 11.9913 10.0792 12.2921 7.66671H10.3333V6.33337H12.2921C11.9913 3.92089 10.0791 2.0088 7.66668 1.70797V3.66671H6.33334V1.70797C3.92086 2.0088 2.00877 3.92089 1.70794 6.33337H3.66668V7.66671H1.70794C2.00877 10.0792 3.92086 11.9913 6.33334 12.2921V10.3334H7.66668V12.2921ZM7.00001 13.6667C3.31811 13.6667 0.333344 10.6819 0.333344 7.00004C0.333344 3.31814 3.31811 0.333374 7.00001 0.333374C10.6819 0.333374 13.6667 3.31814 13.6667 7.00004C13.6667 10.6819 10.6819 13.6667 7.00001 13.6667ZM7.00001 8.33337C6.26361 8.33337 5.66668 7.73644 5.66668 7.00004C5.66668 6.26364 6.26361 5.66671 7.00001 5.66671C7.73641 5.66671 8.33334 6.26364 8.33334 7.00004C8.33334 7.73644 7.73641 8.33337 7.00001 8.33337Z" fill="#232E23"/>
</svg>
