<svg width="22" height="20" viewBox="0 0 22 20" fill="none" xmlns="http://www.w3.org/2000/svg">
<path d="M2.16162 2.46875C4.58557 0.0447998 8.44765 -0.0645001 11.0013 2.14085C13.5533 -0.0645001 17.4154 0.0447998 19.8393 2.46875C22.2589 4.88836 22.3721 8.741 20.179 11.2947L12.4147 19.0858C11.6691 19.8313 10.4814 19.8652 9.69569 19.1874L9.58629 19.0858L1.8219 11.2947C-0.37123 8.741 -0.25799 4.88836 2.16162 2.46875ZM3.57583 3.88296C1.86868 5.59011 1.81991 8.3276 3.42951 10.0937L3.57583 10.2469L11.0005 17.6715L16.3031 12.3675L12.7682 8.8327L11.7076 9.8934C10.536 11.0649 8.63649 11.0649 7.46492 9.8934C6.29335 8.7218 6.29335 6.8223 7.46492 5.65073L9.56609 3.54823C7.85341 2.17713 5.37125 2.23993 3.72909 3.73663L3.57583 3.88296ZM12.0611 6.71139C12.4516 6.32086 13.0848 6.32086 13.4753 6.71139L17.7173 10.9533L18.4251 10.2469C20.1824 8.4896 20.1824 5.64032 18.4251 3.88296C16.7179 2.17581 13.9804 2.12704 12.2144 3.73663L12.0611 3.88296L8.87913 7.06494C8.5165 7.42757 8.4906 7.99942 8.80143 8.3919L8.87913 8.4792C9.24179 8.8418 9.81359 8.8677 10.2061 8.5569L10.2934 8.4792L12.0611 6.71139Z" fill="black"/>
</svg>
