<svg width="32" height="32" viewBox="0 0 32 32" fill="none" xmlns="http://www.w3.org/2000/svg">
<path d="M27.9999 4V6.66667C27.9999 19.5032 20.8366 25.3333 12 25.3333L6.99029 25.3332C6.77407 26.5493 6.66667 27.876 6.66667 29.3333H4C4 27.5164 4.15428 25.8663 4.46101 24.3576C4.15367 22.6321 4 20.2901 4 17.3333C4 9.96953 9.96953 4 17.3333 4C19.9999 4 22.6666 5.33333 27.9999 4ZM17.3333 6.66667C11.4423 6.66667 6.66667 11.4423 6.66667 17.3333C6.66667 17.8165 6.67093 18.2815 6.67939 18.7279C8.35191 16.0912 10.8013 14.0064 14.0051 12.1757L15.3282 14.4909C11.5217 16.6661 8.99665 19.138 7.70032 22.6664L12 22.6667C20.0202 22.6667 25.1615 17.3692 25.3291 7.18355C23.4998 7.36151 21.8001 7.248 19.7031 6.93345C18.1683 6.70323 17.8677 6.66667 17.3333 6.66667Z" fill="white"/>
</svg>
