<svg width="12" height="15" viewBox="0 0 12 15" fill="none" xmlns="http://www.w3.org/2000/svg">
<path d="M4.64871 11H7.35126C7.43926 10.199 7.84806 9.53771 8.51172 8.81511C8.58646 8.73377 9.06586 8.23764 9.12272 8.16677C9.68786 7.46211 9.99999 6.59004 9.99999 5.66671C9.99999 3.45757 8.20912 1.66671 5.99999 1.66671C3.79085 1.66671 1.99999 3.45757 1.99999 5.66671C1.99999 6.58957 2.31182 7.46117 2.8764 8.16564C2.93335 8.23671 3.41386 8.73417 3.48768 8.81457C4.15176 9.53764 4.56068 10.199 4.64871 11ZM7.33332 12.3334H4.66666V13H7.33332V12.3334ZM1.83596 8.99951C1.10429 8.08651 0.666656 6.92771 0.666656 5.66671C0.666656 2.72119 3.05447 0.333374 5.99999 0.333374C8.94552 0.333374 11.3333 2.72119 11.3333 5.66671C11.3333 6.92837 10.8952 8.08771 10.1629 9.00097C9.74932 9.51657 8.66666 10.3334 8.66666 11.3334V13C8.66666 13.7364 8.06972 14.3334 7.33332 14.3334H4.66666C3.93028 14.3334 3.33332 13.7364 3.33332 13V11.3334C3.33332 10.3334 2.24971 9.51577 1.83596 8.99951ZM6.66666 5.66991H8.33332L5.33332 9.66991V7.00324H3.66666L6.66666 3.00004V5.66991Z" fill="#232E23"/>
</svg>
