<svg width="12" height="14" viewBox="0 0 12 14" fill="none" xmlns="http://www.w3.org/2000/svg">
<path d="M1.33333 4.33337V12.3334H4V4.33337H1.33333ZM0 3.66671L2.66667 0.333374L5.33333 3.66671V13.6667H0V3.66671ZM10.6667 9.66671V8.33337H8.66667V7.00004H10.6667V5.66671H9.33333V4.33337H10.6667V3.00004H8V12.3334H10.6667V11H9.33333V9.66671H10.6667ZM7.33333 1.66671H11.3333C11.7015 1.66671 12 1.96519 12 2.33337V13C12 13.3682 11.7015 13.6667 11.3333 13.6667H7.33333C6.96513 13.6667 6.66667 13.3682 6.66667 13V2.33337C6.66667 1.96519 6.96513 1.66671 7.33333 1.66671Z" fill="#232E23"/>
</svg>
