<svg width="32" height="32" viewBox="0 0 32 32" fill="none" xmlns="http://www.w3.org/2000/svg">
<path d="M8 9.33337C8 4.91509 11.5817 1.33337 16 1.33337C20.4183 1.33337 24 4.91509 24 9.33337C24 9.68289 23.9775 10.0276 23.9339 10.3661C26.36 11.7389 28 14.3434 28 17.3334C28 21.7516 24.4183 25.3334 20 25.3334H17.3333V29.3334H14.6667V25.3334H11.3333C7.28324 25.3334 4 22.0502 4 18C4 15.0484 5.74283 12.5063 8.25464 11.3428C8.08847 10.7007 8 10.0272 8 9.33337ZM9.34619 13.7759C7.76235 14.5224 6.66667 16.1344 6.66667 18C6.66667 20.5774 8.756 22.6667 11.3333 22.6667H20C22.9455 22.6667 25.3333 20.2788 25.3333 17.3334C25.3333 15.0742 23.9281 13.1399 21.9392 12.3632L20.8172 11.925C21.0543 11.0712 21.3333 10.2291 21.3333 9.33337C21.3333 6.38785 18.9455 4.00004 16 4.00004C13.0545 4.00004 10.6667 6.38785 10.6667 9.33337C10.6667 11.0771 11.5021 12.6254 12.8003 13.6007L11.1985 15.7327C10.4769 15.1906 9.84955 14.5284 9.34619 13.7759Z" fill="white"/>
</svg>
